<svg width="17" height="15" viewBox="0 0 17 15" xmlns="http://www.w3.org/2000/svg"><title>Fill 1</title><path d="M14.776.305a.425.425 0 0 0-.284-.287.44.44 0 0 0-.063-.013.4.4 0 0 0-.187.012L8.7 1.657a.424.424 0 0 0-.288.528.426.426 0 0 0 .53.286L13.5 1.124 9.02 9.35 4.6 6.92a.425.425 0 0 0-.58.168L.05 14.373A.423.423 0 0 0 .427 15c.15 0 .298-.08.375-.223L4.564 7.87l4.418 2.43a.426.426 0 0 0 .582-.17l4.686-8.6 1.355 4.534a.426.426 0 0 0 .818-.242L14.776.305z" fill="#ED135A" fill-rule="evenodd"/></svg>