<svg width="188" height="35" viewBox="0 0 188 35" xmlns="http://www.w3.org/2000/svg" xmlns:xlink="http://www.w3.org/1999/xlink"><title>logo</title><defs><path id="a" d="M0 34.987h187.947V0H0v34.987z"/></defs><g fill="none" fill-rule="evenodd"><path d="M5.726 23.57c0 1.347.915 2.854 2.863 2.854a3.339 3.339 0 0 0 2.504-1.15c1.034-1.27 1.113-2.815 1.113-4.957-3.777-.317-6.48.872-6.48 3.252zm7.237 6.185c-.2-1.23-.2-2.142-.2-2.737-2.226 3.213-4.89 3.213-6.003 3.213-2.903 0-4.215-.832-5.01-1.586C.556 27.454 0 25.83 0 24.244c0-1.588.557-4.52 4.254-6.227 2.466-1.11 6.005-1.11 7.953-1.11 0-1.308-.04-1.943-.278-2.657-.518-1.466-2.07-1.665-2.625-1.665-.836 0-1.71.357-2.227 1.11-.437.674-.437 1.31-.437 1.785H.876c.04-1.07.16-3.212 2.266-4.72 1.83-1.308 4.176-1.624 6.085-1.624 1.67 0 5.17.277 7.157 2.576 1.352 1.627 1.393 4.005 1.393 4.918l.04 8.05c0 1.704.12 3.41.476 5.075h-5.327z" fill="#FFF"/><mask id="b" fill="#fff"><use xlink:href="#a"/></mask><path d="M19.52 29.755h5.884V1.085H19.52v28.67zm21.595-.278c-1.908.516-3.618.634-4.572.634-5.925 0-5.925-3.726-5.925-5.39V13.734H26.76V9.85h3.858V5.923l5.845-2.14v6.065h4.77v3.885h-4.77v9.04c.04 1.824.04 2.974 2.664 2.974.875 0 1.273-.04 1.988-.12v3.847z" fill="#FFF" mask="url(#b)"/><path d="M51.135 26.384c2.585 0 4.334-1.547 4.334-6.86 0-2.656-.518-6.344-4.414-6.344-4.294 0-4.334 4.956-4.334 6.78 0 4.48 1.51 6.424 4.413 6.424m-.08-17.13c7.278 0 10.42 4.917 10.42 10.508 0 5.63-3.262 10.707-10.538 10.707-5.727 0-10.26-3.53-10.26-10.55 0-4.837 2.466-10.665 10.38-10.665M102.97 23.63c0 1.347.916 2.853 2.865 2.853a3.335 3.335 0 0 0 2.505-1.15c1.034-1.268 1.112-2.815 1.112-4.956-3.778-.317-6.48.872-6.48 3.252zm7.24 6.184c-.2-1.23-.2-2.14-.2-2.736-2.227 3.212-4.892 3.212-6.005 3.212-2.903 0-4.215-.833-5.01-1.586-1.194-1.19-1.75-2.816-1.75-4.4 0-1.588.556-4.522 4.255-6.227 2.465-1.11 6.004-1.11 7.952-1.11 0-1.31-.04-1.943-.278-2.657-.517-1.466-2.067-1.665-2.624-1.665-.835 0-1.71.357-2.227 1.11-.437.674-.437 1.308-.437 1.784H98.12c.04-1.07.16-3.213 2.267-4.72 1.828-1.307 4.174-1.624 6.084-1.624 1.67 0 5.17.276 7.16 2.576 1.35 1.626 1.39 4.006 1.39 4.918l.04 8.05c0 1.704.12 3.41.476 5.074h-5.327zm11.768-5.789c.08 1.27.874 2.736 3.34 2.736 2.107 0 3.102-1.19 3.102-2.378 0-.912-.478-1.625-2.784-2.26l-3.658-.992c-1.63-.475-5.09-1.467-5.09-5.55 0-3.886 3.578-6.266 8.788-6.266 4.136 0 7.476 1.903 7.634 5.908h-5.368c-.16-2.22-1.948-2.378-2.862-2.378-1.59 0-2.784.752-2.784 1.982 0 1.347.995 1.626 2.745 2.1l3.618.993c3.66.99 5.367 2.854 5.367 5.59 0 3.45-2.98 6.9-9.224 6.9-2.583 0-5.05-.557-6.878-2.46-1.313-1.387-1.432-2.973-1.47-3.925h5.526zm26.328 5.512c-1.908.516-3.618.635-4.573.635-5.925 0-5.925-3.728-5.925-5.394V13.795h-3.856V9.91h3.856V5.982l5.846-2.14v6.066h4.772v3.885h-4.772v9.04c.04 1.824.04 2.974 2.664 2.974.875 0 1.272-.04 1.988-.12v3.847zm2.067-14.83c0-.953-.16-3.846-.278-4.996h5.528l.12 3.847c.755-1.705 2.066-4.124 6.84-3.887v5.275c-5.966-.555-6.324 2.498-6.324 4.996v9.874h-5.887V14.707zm17.895 8.923c0 1.347.914 2.853 2.862 2.853 1.075 0 1.95-.515 2.506-1.15 1.034-1.268 1.113-2.815 1.113-4.956-3.78-.317-6.482.872-6.482 3.252zm7.237 6.184c-.2-1.23-.2-2.14-.2-2.736-2.226 3.212-4.89 3.212-6.003 3.212-2.903 0-4.215-.833-5.01-1.586-1.194-1.19-1.75-2.816-1.75-4.4 0-1.588.556-4.522 4.253-6.227 2.466-1.11 6.005-1.11 7.954-1.11 0-1.31-.04-1.943-.28-2.657-.515-1.466-2.067-1.665-2.623-1.665-.836 0-1.71.357-2.227 1.11-.438.674-.438 1.308-.438 1.784h-5.766c.04-1.07.16-3.213 2.267-4.72 1.83-1.307 4.175-1.624 6.084-1.624 1.67 0 5.17.276 7.158 2.576 1.35 1.626 1.39 4.006 1.39 4.918l.042 8.05c0 1.704.12 3.41.476 5.074h-5.328zm6.557 0h5.885V1.146h-5.885v28.668zM79.95 9.27c-4.554 0-8.247 3.68-8.247 8.223 0 4.542 3.693 8.224 8.248 8.224 4.556 0 8.248-3.682 8.248-8.224S84.506 9.27 79.95 9.27m4.145 8.223a4.138 4.138 0 0 1-4.144 4.133 4.138 4.138 0 0 1-4.144-4.133 4.14 4.14 0 0 1 4.145-4.133c2.29 0 4.145 1.85 4.145 4.133M82.017 6.18c0 1.137-.925 2.06-2.066 2.06a2.062 2.062 0 0 1-2.065-2.06V2.06A2.062 2.062 0 0 1 79.95 0c1.142 0 2.067.923 2.067 2.06v4.12zm0 26.746c0 1.14-.925 2.06-2.066 2.06a2.063 2.063 0 0 1-2.065-2.06v-4.12c0-1.136.925-2.06 2.066-2.06 1.142 0 2.067.924 2.067 2.06v4.12zM68.605 15.434c1.14 0 2.065.922 2.065 2.06 0 1.137-.924 2.06-2.065 2.06h-4.13a2.063 2.063 0 0 1-2.067-2.06c0-1.138.925-2.06 2.066-2.06h4.13zm26.822 0c1.14 0 2.067.922 2.067 2.06 0 1.137-.926 2.06-2.067 2.06h-4.13a2.063 2.063 0 0 1-2.066-2.06c0-1.138.926-2.06 2.066-2.06h4.13zm-19.36-8.769c.57.986.23 2.245-.756 2.814-.987.568-2.25.23-2.82-.755l-2.067-3.568a2.056 2.056 0 0 1 .757-2.813c.988-.57 2.25-.23 2.82.754l2.067 3.567zM89.48 29.83c.57.985.23 2.244-.758 2.813a2.068 2.068 0 0 1-2.82-.754l-2.067-3.57a2.057 2.057 0 0 1 .756-2.812 2.07 2.07 0 0 1 2.823.754l2.066 3.568zm-20.387-8.464a2.07 2.07 0 0 1 2.82.754 2.055 2.055 0 0 1-.755 2.814l-3.578 2.06c-.988.57-2.252.23-2.82-.754a2.056 2.056 0 0 1 .754-2.814l3.58-2.06zM92.32 7.993a2.068 2.068 0 0 1 2.823.753c.57.986.232 2.246-.756 2.814l-3.577 2.06a2.07 2.07 0 0 1-2.822-.754 2.056 2.056 0 0 1 .756-2.813l3.577-2.06zm-21.162 2.06a2.056 2.056 0 0 1 .756 2.813 2.068 2.068 0 0 1-2.82.754l-3.58-2.06a2.056 2.056 0 0 1-.755-2.814 2.068 2.068 0 0 1 2.82-.753l3.578 2.06zm23.229 13.373a2.056 2.056 0 0 1 .756 2.813 2.068 2.068 0 0 1-2.82.754l-3.58-2.06a2.056 2.056 0 0 1-.755-2.814 2.07 2.07 0 0 1 2.822-.754l3.577 2.06zM72.49 26.262a2.067 2.067 0 0 1 2.82-.755c.988.57 1.327 1.83.757 2.814L74 31.89a2.067 2.067 0 0 1-2.82.753 2.056 2.056 0 0 1-.757-2.813l2.066-3.568zM85.9 3.098a2.07 2.07 0 0 1 2.823-.754 2.057 2.057 0 0 1 .755 2.813l-2.065 3.568a2.07 2.07 0 0 1-2.822.754 2.056 2.056 0 0 1-.755-2.815L85.9 3.098z" fill="#FFF" mask="url(#b)"/></g></svg>